<svg xmlns="http://www.w3.org/2000/svg" viewBox="0 0 32 32"><defs><style>.cls-1{fill:#8ec63f;}.cls-2{fill:#fc751b;}</style></defs><g id="carrot"><path class="cls-1" d="M18.71,6.29a1,1,0,0,0-1.42,0l-.29.3V5a1,1,0,0,0-2,0V6.59l-.29-.3a1,1,0,0,0-1.42,1.42l2,2,0,0a.85.85,0,0,0,.3.19h0A.84.84,0,0,0,16,10a1.22,1.22,0,0,0,.38-.07,1.19,1.19,0,0,0,.33-.22l2-2A1,1,0,0,0,18.71,6.29Z"/><path class="cls-2" d="M18,22a1,1,0,0,1,0-2h3.15c.08-.34.16-.67.23-1H17a1,1,0,0,1,0-2h4.76c0-.36.1-.69.14-1H15a1,1,0,0,1,0-2h7a6.27,6.27,0,0,0-6-6c-3.31,0-6,3-6,6.63C10,17.18,12,28,16,28c2.06,0,3.59-2.87,4.59-6Z"/></g></svg>