<svg xmlns="http://www.w3.org/2000/svg" viewBox="0 0 32 32"><defs><style>.cls-1{fill:#d91f20;}.cls-2{fill:#ad1a22;}</style></defs><g id="cola"><path class="cls-1" d="M23.83,8.45,22.68,6.72A1,1,0,0,0,23,6a1,1,0,0,0-1-1H10A1,1,0,0,0,9,6a1,1,0,0,0,.32.72L8.17,8.45A1,1,0,0,0,8,9V24.5c0,2,2,3.5,4.49,3.5h7C22,28,24,26.46,24,24.5V9A1,1,0,0,0,23.83,8.45Z"/><path class="cls-2" d="M23.83,8.45,22.68,6.72A1,1,0,0,0,23,6a1,1,0,0,0-1-1H10A1,1,0,0,0,9,6a1,1,0,0,0,.32.72L8.17,8.45A1,1,0,0,0,8,9V24.5c0,2,2,3.5,4.49,3.5h7C22,28,24,26.46,24,24.5V9A1,1,0,0,0,23.83,8.45ZM22,24.5c0,.71-1,1.5-2.49,1.5h-7C11,26,10,25.21,10,24.5V9.3L11.54,7h8.92L22,9.3Z"/></g></svg>