<svg xmlns="http://www.w3.org/2000/svg" viewBox="0 0 32 32"><defs><style>.cls-1{fill:#879d00;}.cls-2{fill:#6c65c2;}.cls-3{fill:#54539b;}</style></defs><g id="grape"><path class="cls-1" d="M16,10a1,1,0,0,1-1-1c0-2.85,1.29-5,3-5a1,1,0,0,1,0,2c-.25,0-1,1.06-1,3A1,1,0,0,1,16,10Z"/><path class="cls-2" d="M26,12a4,4,0,0,0-7-2.62,4,4,0,0,0-6,0A4,4,0,1,0,9.58,16,3.94,3.94,0,0,0,9,18a4,4,0,0,0,3.58,4A3.94,3.94,0,0,0,12,24a4,4,0,0,0,8,0,3.94,3.94,0,0,0-.58-2A4,4,0,0,0,23,18a3.94,3.94,0,0,0-.58-2A4,4,0,0,0,26,12Z"/><path class="cls-3" d="M26,12a4,4,0,0,0-7-2.62,4,4,0,0,0-6,0A4,4,0,1,0,9.58,16,3.94,3.94,0,0,0,9,18a4,4,0,0,0,3.58,4A3.94,3.94,0,0,0,12,24a4,4,0,0,0,8,0,3.94,3.94,0,0,0-.58-2A4,4,0,0,0,23,18a3.94,3.94,0,0,0-.58-2A4,4,0,0,0,26,12ZM16,10a2,2,0,1,1-2,2A2,2,0,0,1,16,10ZM8,12a2,2,0,1,1,2,2A2,2,0,0,1,8,12Zm3,6a2,2,0,1,1,2,2A2,2,0,0,1,11,18Zm5,8a2,2,0,1,1,2-2A2,2,0,0,1,16,26Zm3-6a2,2,0,1,1,2-2A2,2,0,0,1,19,20Zm3-6a2,2,0,1,1,2-2A2,2,0,0,1,22,14Z"/></g></svg>