<svg xmlns="http://www.w3.org/2000/svg" viewBox="0 0 32 32"><defs><style>.cls-1{fill:#fda409;}.cls-2{fill:#ffe376;}.cls-3{fill:#934d2b;}</style></defs><g id="burger"><path class="cls-1" d="M24,21H8a1,1,0,0,0-1,1v1.69A3.32,3.32,0,0,0,10.31,27H21.69A3.32,3.32,0,0,0,25,23.69V22A1,1,0,0,0,24,21Z"/><path class="cls-1" d="M8,14H24a1,1,0,0,0,1-1c0-4.41-4-8-9-8S7,8.59,7,13A1,1,0,0,0,8,14Z"/><path class="cls-2" d="M15,10H14a1,1,0,0,1,0-2h1a1,1,0,0,1,0,2Z"/><path class="cls-2" d="M19,11H18a1,1,0,0,1,0-2h1a1,1,0,0,1,0,2Z"/><path class="cls-3" d="M24,20H8a1,1,0,0,1,0-2H24a1,1,0,0,1,0,2Z"/><path class="cls-3" d="M24,17H8a1,1,0,0,1,0-2H24a1,1,0,0,1,0,2Z"/></g></svg>