<svg xmlns="http://www.w3.org/2000/svg" viewBox="0 0 32 32"><defs><style>.cls-1{fill:#42210b;}.cls-2{fill:#e65848;}.cls-3{fill:#fdc536;}</style></defs><g id="ice_cream" data-name="ice cream"><g id="ice_cream-2" data-name="ice cream"><path class="cls-1" d="M18,20H14a1,1,0,0,0-1,1v4.47A2.54,2.54,0,0,0,15.53,28h.94A2.54,2.54,0,0,0,19,25.47V21A1,1,0,0,0,18,20Z"/><path class="cls-2" d="M16.67,4H15.33A6.35,6.35,0,0,0,9,10.33V21a1,1,0,0,0,1,1H22a1,1,0,0,0,1-1V10.33A6.35,6.35,0,0,0,16.67,4Z"/><path class="cls-3" d="M18,17a1,1,0,0,1-1-1V12a1,1,0,0,1,2,0v4A1,1,0,0,1,18,17Z"/><path class="cls-3" d="M14,17a1,1,0,0,1-1-1V12a1,1,0,0,1,2,0v4A1,1,0,0,1,14,17Z"/></g></g></svg>